<svg width="76.011" height="19.995" viewBox="0 0 74.011 18.995" xmlns="http://www.w3.org/2000/svg"><g id="svgGroup" stroke-linecap="round" fill-rule="evenodd" font-size="9pt" stroke="#000" stroke-width="0.25mm" fill="#000" style="stroke:#000;stroke-width:0.25mm;fill:#000"><path d="M 51.697 5.542 L 51.697 8.618 Q 52.344 7.08 53.601 6.189 A 4.705 4.705 0 0 1 56.384 5.298 Q 57.889 5.298 58.845 5.901 A 3.063 3.063 0 0 1 59.54 6.5 A 3.793 3.793 0 0 1 60.229 7.733 Q 60.424 8.292 60.512 8.981 A 9.495 9.495 0 0 1 60.583 10.132 L 60.583 18.75 L 59.924 18.75 L 59.924 10.107 A 8.519 8.519 0 0 0 59.851 9 Q 59.675 7.72 59.079 6.99 A 2.622 2.622 0 0 0 59.058 6.964 Q 58.203 5.945 56.348 5.945 A 4.107 4.107 0 0 0 53.387 7.159 A 5.896 5.896 0 0 0 51.938 9.458 A 7.508 7.508 0 0 0 51.697 10.291 L 51.697 18.75 L 51.038 18.75 L 51.038 5.542 L 51.697 5.542 Z M 74.011 18.75 L 73.254 18.75 Q 73.034 17.989 73.013 16.631 A 18.973 18.973 0 0 1 73.01 16.333 Q 72.229 17.603 70.874 18.298 A 6.315 6.315 0 0 1 68.642 18.951 A 7.796 7.796 0 0 1 67.81 18.994 A 5.477 5.477 0 0 1 66.537 18.854 A 3.797 3.797 0 0 1 64.862 17.999 A 3.272 3.272 0 0 1 63.75 15.604 A 4.421 4.421 0 0 1 63.745 15.405 A 3.236 3.236 0 0 1 64.871 12.891 A 4.552 4.552 0 0 1 65.387 12.494 A 6.112 6.112 0 0 1 67.164 11.704 Q 68.305 11.39 69.751 11.377 L 73.01 11.377 L 73.01 9.448 A 4.23 4.23 0 0 0 72.881 8.373 A 2.938 2.938 0 0 0 71.967 6.873 A 3.399 3.399 0 0 0 70.722 6.193 Q 70.209 6.033 69.59 5.981 A 7.354 7.354 0 0 0 68.982 5.957 A 5.804 5.804 0 0 0 67.576 6.119 A 4.328 4.328 0 0 0 65.967 6.885 A 3.415 3.415 0 0 0 65.242 7.625 A 2.64 2.64 0 0 0 64.758 9.18 L 64.099 9.155 Q 64.099 7.544 65.515 6.421 A 5.154 5.154 0 0 1 68.115 5.352 A 6.799 6.799 0 0 1 68.982 5.298 Q 70.729 5.298 71.888 6.012 A 3.962 3.962 0 0 1 72.375 6.366 A 3.575 3.575 0 0 1 73.58 8.486 A 5.233 5.233 0 0 1 73.669 9.375 L 73.669 15.686 Q 73.669 17.758 73.98 18.565 A 1.831 1.831 0 0 0 74.011 18.64 L 74.011 18.75 Z M 13.391 18.75 L 11.401 13.44 L 2.698 13.44 L 0.72 18.75 L 0 18.75 L 6.653 0.977 L 7.458 0.977 L 14.111 18.75 L 13.391 18.75 Z M 16.016 12.183 L 16.016 12.012 Q 16.016 9.782 16.678 8.241 A 5.67 5.67 0 0 1 17.346 7.074 A 4.235 4.235 0 0 1 20.431 5.326 A 5.608 5.608 0 0 1 20.996 5.298 A 5.609 5.609 0 0 1 22.478 5.487 A 4.69 4.69 0 0 1 23.627 5.969 A 4.683 4.683 0 0 1 25.082 7.329 A 5.985 5.985 0 0 1 25.476 7.971 L 25.476 0 L 26.135 0 L 26.135 18.75 L 25.476 18.75 L 25.476 16.638 Q 24.805 17.761 23.633 18.378 A 5.372 5.372 0 0 1 21.696 18.956 A 6.668 6.668 0 0 1 20.972 18.994 Q 18.677 18.994 17.346 17.175 Q 16.26 15.691 16.061 13.304 A 13.46 13.46 0 0 1 16.016 12.183 Z M 37.402 12.439 L 37.402 11.89 A 7.961 7.961 0 0 1 37.747 9.523 A 7.215 7.215 0 0 1 38.135 8.533 A 6.221 6.221 0 0 1 39.163 6.995 A 5.442 5.442 0 0 1 40.149 6.152 A 4.938 4.938 0 0 1 42.944 5.298 A 5.051 5.051 0 0 1 44.781 5.621 A 4.571 4.571 0 0 1 46.558 6.873 A 5.398 5.398 0 0 1 47.803 9.4 A 7.784 7.784 0 0 1 47.961 11.011 L 47.961 11.707 L 38.062 11.707 L 38.062 12.427 Q 38.062 14.038 38.739 15.411 A 5.581 5.581 0 0 0 39.817 16.928 A 5.107 5.107 0 0 0 40.607 17.566 Q 41.797 18.347 43.188 18.347 A 6.645 6.645 0 0 0 44.204 18.274 Q 44.767 18.187 45.238 17.996 A 3.845 3.845 0 0 0 45.453 17.902 A 4.364 4.364 0 0 0 46.685 17.012 A 5.453 5.453 0 0 0 47.107 16.528 L 47.571 16.858 A 4.787 4.787 0 0 1 44.062 18.942 A 7.068 7.068 0 0 1 43.188 18.994 Q 41.589 18.994 40.253 18.134 A 5.883 5.883 0 0 1 38.207 15.865 A 6.951 6.951 0 0 1 38.159 15.771 A 7.135 7.135 0 0 1 37.421 13.003 A 8.507 8.507 0 0 1 37.402 12.439 Z M 36.206 5.432 L 36.133 6.018 L 35.278 5.945 A 4.278 4.278 0 0 0 33.797 6.193 A 3.798 3.798 0 0 0 32.458 7.037 Q 31.369 8.086 30.999 9.938 A 8.451 8.451 0 0 0 30.969 10.095 L 30.969 18.75 L 30.31 18.75 L 30.31 5.542 L 30.969 5.542 L 30.969 8.289 A 5.256 5.256 0 0 1 31.73 6.935 A 4.557 4.557 0 0 1 32.581 6.104 A 3.935 3.935 0 0 1 34.182 5.402 A 5.504 5.504 0 0 1 35.278 5.298 Q 35.675 5.298 35.967 5.362 A 1.714 1.714 0 0 1 36.206 5.432 Z M 25.476 15.479 L 25.476 9.29 Q 24.43 6.218 21.495 5.977 A 6.268 6.268 0 0 0 20.984 5.957 A 4.098 4.098 0 0 0 19.512 6.211 Q 18.508 6.594 17.828 7.556 A 5.29 5.29 0 0 0 17.124 9.019 Q 16.9 9.726 16.794 10.591 A 13.844 13.844 0 0 0 16.699 12.268 A 11.488 11.488 0 0 0 16.825 14.021 Q 17.072 15.623 17.81 16.705 A 3.682 3.682 0 0 0 19.08 17.888 Q 19.892 18.335 20.959 18.335 A 6.16 6.16 0 0 0 22.3 18.196 A 4.602 4.602 0 0 0 23.755 17.609 A 4.194 4.194 0 0 0 25.283 15.906 A 5.328 5.328 0 0 0 25.476 15.479 Z M 7.056 1.77 L 2.942 12.781 L 11.157 12.781 L 7.056 1.77 Z M 73.01 15.186 L 73.01 12.048 L 69.958 12.048 A 11.454 11.454 0 0 0 68.328 12.157 Q 67.494 12.277 66.818 12.531 A 4.788 4.788 0 0 0 65.625 13.171 A 3.395 3.395 0 0 0 64.905 13.888 A 2.601 2.601 0 0 0 64.404 15.454 A 2.593 2.593 0 0 0 65.238 17.385 A 3.464 3.464 0 0 0 65.369 17.505 A 3.372 3.372 0 0 0 67.125 18.298 A 4.595 4.595 0 0 0 67.81 18.347 A 6.954 6.954 0 0 0 69.385 18.177 A 5.322 5.322 0 0 0 71.002 17.517 A 5.142 5.142 0 0 0 73.01 15.186 Z M 38.098 11.047 L 47.302 11.047 L 47.302 10.889 A 5.577 5.577 0 0 0 46.735 8.392 A 4.636 4.636 0 0 0 45.897 7.19 A 4.148 4.148 0 0 0 45.172 6.598 A 4.026 4.026 0 0 0 42.944 5.957 A 4.291 4.291 0 0 0 39.8 7.26 A 5.36 5.36 0 0 0 39.673 7.391 A 5.816 5.816 0 0 0 38.26 10.081 A 7.635 7.635 0 0 0 38.098 11.047 Z" vector-effect="non-scaling-stroke"/></g></svg>